<svg width="408" height="328" viewBox="0 0 408 328" fill="none" xmlns="http://www.w3.org/2000/svg">
<g filter="url(#filter0_d_106_12)">
<path d="M207.674 263.521L209.401 297.371L209.401 297.372C209.693 303.093 207.528 308.688 203.383 312.925C199.238 317.162 193.452 319.695 187.298 319.967L186.544 320L183.716 264.578L207.674 263.521Z" fill="#D73D6C"/>
<path d="M80.3368 318.648C122.496 318.648 156.674 286.874 156.674 247.678C156.674 208.482 122.496 176.708 80.3368 176.708C38.1771 176.708 4 208.482 4 247.678C4 286.874 38.1771 318.648 80.3368 318.648Z" fill="#E2CAAE"/>
<path d="M374.938 145.215L392.019 145.346C393.747 145.359 395.458 145.022 397.031 144.357C398.605 143.693 400.004 142.717 401.13 141.498C402.256 140.28 403.083 138.847 403.553 137.301C404.022 135.754 404.124 134.131 403.849 132.545V132.545C403.554 130.837 402.832 129.218 401.741 127.818C400.65 126.417 399.22 125.274 397.567 124.481C395.914 123.688 394.084 123.266 392.224 123.251C390.364 123.235 388.526 123.626 386.858 124.391L370.75 131.78L315.657 143.203L292.055 120.768L278.497 141.527L310.347 164.404L374.938 145.215Z" fill="#B77D67"/>
<path d="M371.737 309.279L351.613 312.877C337.867 272.594 322.974 234.446 322.975 204.94C303.523 225.068 279.4 236.584 250.994 240.2L254.09 195.586L277.31 184.073L312.847 168.824C315.959 167.489 319.315 166.717 322.737 166.549V166.549C329.391 166.224 335.938 168.198 341.12 172.092C346.301 175.985 349.75 181.523 350.802 187.639L371.737 309.279Z" fill="black"/>
<path d="M275.375 234.803L267.354 240.47C263.905 242.907 259.831 244.463 255.535 244.984C251.24 245.504 246.873 244.971 242.867 243.438C219.894 227.429 203.573 232.152 188.781 256.316C171.038 237.699 166.661 210.811 182.496 182.993L270.344 184.792L288.146 179.755L275.375 234.803Z" fill="black"/>
<path d="M246.118 318.174C241.084 319.614 235.666 319.361 230.813 317.46C225.959 315.559 221.98 312.131 219.572 307.776C211.678 301.311 205.016 292.055 199.239 280.8C195.093 272.543 191.534 264.043 188.583 255.354C184.585 243.875 191.27 231.334 203.712 227.899C204.082 227.797 204.456 227.701 204.835 227.611C221.444 223.646 238.501 232.552 244.178 247.596L260.687 291.338C261.662 293.922 262.081 296.66 261.918 299.394C261.755 302.128 261.015 304.806 259.739 307.275C258.463 309.743 256.677 311.953 254.483 313.78C252.288 315.607 249.728 317.013 246.948 317.92C246.673 318.01 246.397 318.094 246.118 318.174Z" fill="black"/>
<path opacity="0.2" d="M196.427 275.819C196.427 275.819 215.777 295.967 219.647 307.48Z" fill="black"/>
<path d="M121.381 180.732L114.905 195.426C114.25 196.913 113.951 198.515 114.03 200.12C114.11 201.725 114.564 203.295 115.363 204.72C116.162 206.145 117.285 207.391 118.655 208.371C120.024 209.351 121.608 210.041 123.294 210.394V210.394C125.109 210.773 126.994 210.752 128.798 210.33C130.602 209.909 132.274 209.099 133.681 207.967C135.087 206.835 136.188 205.412 136.894 203.812C137.601 202.213 137.894 200.481 137.749 198.757L136.354 182.108L145.415 130.311L176.587 118.273L160.893 98.8584L126.215 117.851L121.381 180.732Z" fill="#B77D67"/>
<path d="M276.149 182.993C253.91 217.722 209.577 231.169 171.605 203.975C178.285 183.571 199.85 127.18 185.918 125.021C156.338 136.554 156.295 109.476 150.762 95.9242L218.099 72.8977L254.477 82.2522L261.934 84.7122C266.787 86.3131 270.996 89.2574 273.995 93.1489C276.995 97.0404 278.64 101.692 278.711 106.479C263.43 127.004 252.118 148.898 276.149 182.993Z" fill="#D73D6C"/>
<path d="M284.662 154.93L257.959 134.422L266.86 86.5698L303.238 122.549L284.662 154.93Z" fill="#D73D6C"/>
<path d="M271.021 66.6329H205.037C203.68 66.6315 202.379 66.1296 201.419 65.2373C200.459 64.345 199.919 63.1353 199.918 61.8734V35.4318C199.918 26.0347 203.933 17.0225 211.08 10.3777C218.227 3.73298 227.921 0 238.029 0C248.137 0 257.83 3.73298 264.977 10.3777C272.125 17.0225 276.14 26.0347 276.14 35.4318V61.8734C276.138 63.1353 275.599 64.3451 274.639 65.2373C273.679 66.1296 272.378 66.6315 271.021 66.6329V66.6329Z" fill="black"/>
<path d="M269.831 51.5231C277.233 38.9344 272.257 23.1505 258.716 16.2689C245.175 9.38728 228.198 14.0138 220.796 26.6026C213.394 39.1913 218.37 54.9751 231.911 61.8568C245.452 68.7384 262.429 64.1118 269.831 51.5231Z" fill="#B77D67"/>
<path d="M285.156 38.076H244.809L244.395 32.6906L242.326 38.076H236.113L235.294 27.4023L231.193 38.076H219.172V37.5472C219.181 30.1163 222.36 22.9921 228.012 17.7376C233.664 12.4831 241.327 9.52745 249.32 9.51904H255.008C263.001 9.5274 270.664 12.483 276.316 17.7375C281.968 22.992 285.147 30.1162 285.156 37.5472V38.076Z" fill="black"/>
<path d="M244.479 71.5688C244.175 71.5685 243.872 71.5436 243.573 71.4944L214.029 66.6482V21.2533H246.551L245.746 22.1261C234.543 34.2727 242.983 53.9686 249.011 64.6279C249.455 65.4086 249.654 66.2901 249.583 67.1708C249.512 68.0516 249.175 68.8958 248.61 69.6063C248.138 70.2139 247.517 70.7086 246.799 71.0497C246.08 71.3909 245.285 71.5688 244.479 71.5688V71.5688Z" fill="black"/>
<path d="M342.842 295.693L379.293 295.692H379.294C385.455 295.692 391.363 297.968 395.719 302.017C400.076 306.067 402.523 311.56 402.524 317.288V317.989L342.843 317.991L342.842 295.693Z" fill="#D73D6C"/>
<path d="M75.9872 267.142C73.5559 267.164 71.1471 266.671 68.9176 265.695C66.6881 264.719 64.6878 263.282 63.0468 261.478C59.2139 257.268 57.3387 251.163 57.9021 244.728C58.3703 238.992 60.7594 233.585 64.6788 229.392C66.5489 227.357 68.8126 225.727 71.3311 224.603C73.8497 223.48 76.5699 222.885 79.325 222.857C81.8773 222.846 84.4035 223.375 86.739 224.41C89.0746 225.446 91.1673 226.964 92.8809 228.867C94.834 231.088 96.3079 233.693 97.2097 236.517C98.1114 239.34 98.4215 242.321 98.1202 245.271V245.271C97.5465 251.811 95.0207 257.366 90.8161 261.334C86.7907 265.102 81.4858 267.179 75.9872 267.142V267.142ZM79.325 229.047C71.5464 229.047 64.8294 236.174 64.033 245.271C63.6206 249.981 64.9155 254.365 67.5856 257.297C68.6469 258.472 69.9453 259.406 71.3941 260.037C72.843 260.667 74.4089 260.979 75.9872 260.952C83.2439 260.952 91.0062 255.935 91.9893 244.727V244.727C92.216 242.633 92.0089 240.514 91.3811 238.503C90.7533 236.493 89.7185 234.635 88.3418 233.047C87.2022 231.781 85.8103 230.771 84.2568 230.082C82.7032 229.393 81.0229 229.04 79.325 229.047V229.047Z" fill="black"/>
<path d="M105.238 267.223C104.552 267.225 103.867 267.166 103.192 267.047C101.415 266.738 99.7192 266.07 98.2077 265.081C96.6961 264.093 95.4002 262.805 94.399 261.297C92.2126 258.023 91.2895 253.635 91.7294 248.609L93.7367 225.692C93.8099 224.876 94.2021 224.122 94.8274 223.596C95.4526 223.07 96.2598 222.815 97.0718 222.887C97.8838 222.959 98.6342 223.352 99.1584 223.979C99.6825 224.607 99.9376 225.419 99.8676 226.236L97.8603 249.152C97.2853 255.722 99.6799 260.134 104.266 260.951C105.84 261.232 108.668 260.797 111.458 258.646C114.308 256.45 117.874 251.911 118.675 242.759C119.595 232.259 116.927 223.246 110.961 216.692C104.705 209.822 95.2361 206.19 83.5769 206.19C62.1458 206.19 43.1845 223.721 41.3088 245.269C40.9417 249.323 41.2318 253.41 42.1677 257.371C42.3587 258.169 42.2267 259.011 41.8008 259.711C41.3748 260.411 40.6898 260.913 39.8963 261.105C39.1028 261.297 38.2659 261.164 37.5698 260.736C36.8736 260.307 36.3751 259.618 36.1841 258.82C35.0922 254.209 34.7523 249.45 35.1776 244.729C36.4032 232.608 42.0071 221.359 50.9274 213.115C59.8476 204.871 71.4645 200.205 83.5769 200C97.0085 200 108.047 204.326 115.5 212.512C122.561 220.267 125.866 231.202 124.806 243.302C123.808 254.697 119.032 260.608 115.202 263.56C112.361 265.831 108.866 267.116 105.238 267.223Z" fill="black"/>
<path d="M76.2349 289.999C66.1342 290.08 56.3501 286.457 48.7125 279.808C48.4086 279.54 48.1601 279.214 47.9814 278.849C47.8027 278.484 47.6974 278.088 47.6712 277.682C47.6451 277.276 47.6987 276.869 47.8292 276.484C47.9596 276.099 48.1641 275.743 48.4312 275.438C48.6983 275.132 49.0225 274.883 49.3855 274.703C49.7485 274.524 50.1431 274.419 50.5467 274.393C50.9503 274.367 51.355 274.421 51.7377 274.553C52.1203 274.685 52.4734 274.891 52.7768 275.16C59.2912 280.814 67.6303 283.889 76.2349 283.808C83.1344 283.808 87.3094 283.345 93.8098 280.598C94.1824 280.44 94.5822 280.358 94.9865 280.356C95.3907 280.354 95.7913 280.431 96.1656 280.585C96.5398 280.739 96.8803 280.965 97.1676 281.251C97.4549 281.537 97.6834 281.877 97.84 282.252C97.9965 282.627 98.0782 283.029 98.0802 283.435C98.0822 283.842 98.0045 284.245 97.8516 284.621C97.6988 284.998 97.4737 285.34 97.1892 285.629C96.9048 285.918 96.5666 286.147 96.1938 286.305C88.7609 289.446 83.8356 289.999 76.2349 289.999Z" fill="black"/>
</g>
<defs>
<filter id="filter0_d_106_12" x="0" y="0" width="408" height="328" filterUnits="userSpaceOnUse" color-interpolation-filters="sRGB">
<feFlood flood-opacity="0" result="BackgroundImageFix"/>
<feColorMatrix in="SourceAlpha" type="matrix" values="0 0 0 0 0 0 0 0 0 0 0 0 0 0 0 0 0 0 127 0" result="hardAlpha"/>
<feOffset dy="4"/>
<feGaussianBlur stdDeviation="2"/>
<feComposite in2="hardAlpha" operator="out"/>
<feColorMatrix type="matrix" values="0 0 0 0 0 0 0 0 0 0 0 0 0 0 0 0 0 0 0.25 0"/>
<feBlend mode="normal" in2="BackgroundImageFix" result="effect1_dropShadow_106_12"/>
<feBlend mode="normal" in="SourceGraphic" in2="effect1_dropShadow_106_12" result="shape"/>
</filter>
</defs>
</svg>
