<svg width="82" height="78" viewBox="0 0 82 78" fill="none" xmlns="http://www.w3.org/2000/svg">
<ellipse cx="41" cy="39" rx="41" ry="39" fill="#CE8B85"/>
<path d="M22.08 56.32C18.5333 56.32 15.6933 55.6533 13.56 54.32C11.4267 52.96 10.36 50.8933 10.36 48.12C10.36 46.6533 10.6133 45.5333 11.12 44.76C11.6267 43.9867 12.3733 43.6 13.36 43.6C14.08 43.6 14.6667 43.7867 15.12 44.16C15.5733 44.5333 15.8 45.0133 15.8 45.6C15.8 46.1333 15.76 46.6 15.68 47C15.68 47.1067 15.6533 47.2933 15.6 47.56C15.5733 47.8267 15.56 48.1067 15.56 48.4C15.56 49.6 16.16 50.4933 17.36 51.08C18.5867 51.6667 20.2933 51.96 22.48 51.96C24.7467 51.96 26.52 51.56 27.8 50.76C29.08 49.9333 29.72 48.7867 29.72 47.32C29.72 46.4133 29.4267 45.64 28.84 45C28.2533 44.3333 27.52 43.7867 26.64 43.36C25.76 42.9067 24.52 42.36 22.92 41.72C20.8667 40.92 19.1867 40.16 17.88 39.44C16.6 38.72 15.4933 37.7467 14.56 36.52C13.6533 35.2667 13.2 33.72 13.2 31.88C13.2 29.96 13.7067 28.2533 14.72 26.76C15.76 25.2667 17.24 24.1067 19.16 23.28C21.1067 22.4533 23.3867 22.04 26 22.04C27.9467 22.04 29.7333 22.3333 31.36 22.92C32.9867 23.48 34.28 24.3467 35.24 25.52C36.2267 26.6933 36.72 28.1333 36.72 29.84C36.72 31.52 36.4667 32.7867 35.96 33.64C35.4533 34.4933 34.7067 34.92 33.72 34.92C33.0267 34.92 32.44 34.7067 31.96 34.28C31.5067 33.8533 31.28 33.3467 31.28 32.76C31.28 32.2533 31.32 31.7867 31.4 31.36C31.48 30.56 31.52 30.0533 31.52 29.84C31.52 28.72 30.9733 27.8667 29.88 27.28C28.7867 26.6933 27.4267 26.4 25.8 26.4C23.5067 26.4 21.7467 26.8267 20.52 27.68C19.32 28.5067 18.72 29.68 18.72 31.2C18.72 32.2133 19.0267 33.08 19.64 33.8C20.28 34.52 21.0667 35.12 22 35.6C22.9333 36.08 24.24 36.6533 25.92 37.32C27.9467 38.1467 29.5733 38.8933 30.8 39.56C32.0267 40.2267 33.0667 41.1333 33.92 42.28C34.8 43.4267 35.24 44.84 35.24 46.52C35.24 49.6667 34.04 52.0933 31.64 53.8C29.2667 55.48 26.08 56.32 22.08 56.32ZM75.2944 38.72C75.9077 38.72 76.3477 38.8533 76.6144 39.12C76.9077 39.3867 77.0544 39.7333 77.0544 40.16C77.0544 40.8533 76.841 41.4667 76.4144 42C76.0144 42.5333 75.3744 42.8133 74.4944 42.84C72.361 42.8933 70.4677 42.7333 68.8144 42.36C66.921 46.3333 64.6277 49.64 61.9344 52.28C59.2677 54.8933 56.5877 56.2 53.8944 56.2C51.121 56.2 49.0544 54.5867 47.6944 51.36C46.3344 48.1333 45.6544 43.7733 45.6544 38.28C45.6544 33.5867 45.9877 29.3733 46.6544 25.64C46.8944 24.2533 47.2277 23.32 47.6544 22.84C48.1077 22.3333 48.8677 22.08 49.9344 22.08C51.6944 22.08 52.5744 22.84 52.5744 24.36C52.5744 24.52 52.5477 24.8133 52.4944 25.24C51.6944 30.04 51.2944 34.3867 51.2944 38.28C51.2944 42.36 51.6277 45.4667 52.2944 47.6C52.9877 49.7067 54.0144 50.76 55.3744 50.76C56.761 50.76 58.2677 49.8 59.8944 47.88C61.521 45.96 63.0144 43.5467 64.3744 40.64C62.7477 39.6267 61.521 38.32 60.6944 36.72C59.8677 35.0933 59.4544 33.2267 59.4544 31.12C59.4544 29.0133 59.7744 27.24 60.4144 25.8C61.081 24.3333 61.9744 23.24 63.0944 22.52C64.241 21.8 65.5077 21.44 66.8944 21.44C68.601 21.44 69.9477 22.0533 70.9344 23.28C71.9477 24.5067 72.4544 26.1867 72.4544 28.32C72.4544 31.3867 71.7877 34.7333 70.4544 38.36C71.8677 38.6 73.481 38.72 75.2944 38.72ZM63.4944 30.84C63.4944 33.4533 64.3344 35.3867 66.0144 36.64C67.0544 33.6533 67.5744 31.1867 67.5744 29.24C67.5744 28.12 67.4277 27.3067 67.1344 26.8C66.841 26.2667 66.441 26 65.9344 26C65.2144 26 64.6277 26.4267 64.1744 27.28C63.721 28.1067 63.4944 29.2933 63.4944 30.84Z" fill="white"/>
</svg>
