<svg width="20" height="20" viewBox="0 0 20 20" fill="none" xmlns="http://www.w3.org/2000/svg">
<path d="M1.81818 0C1.33597 0 0.873508 0.210714 0.532533 0.585786C0.191558 0.960859 0 1.46957 0 2V14C0 14.5304 0.191558 15.0391 0.532533 15.4142C0.873508 15.7893 1.33597 16 1.81818 16H8.18182V18H6.36364V20H13.6364V18H11.8182V16H18.1818C18.664 16 19.1265 15.7893 19.4675 15.4142C19.8084 15.0391 20 14.5304 20 14V2C20 1.46957 19.8084 0.960859 19.4675 0.585786C19.1265 0.210714 18.664 0 18.1818 0H1.81818ZM1.81818 2H18.1818V14H1.81818V2ZM12.7273 3L9.54545 6.5L12.7273 10L14 8.6L12.0909 6.5L14 4.4L12.7273 3ZM7.27273 6L6 7.4L7.90909 9.5L6 11.6L7.27273 13L10.4545 9.5" fill="black"/>
</svg>
