<svg width="20" height="25" viewBox="0 0 20 25" fill="none" xmlns="http://www.w3.org/2000/svg">
<path d="M10 11.875C9.0528 11.875 8.14439 11.5458 7.47462 10.9597C6.80485 10.3737 6.42857 9.5788 6.42857 8.75C6.42857 7.9212 6.80485 7.12634 7.47462 6.54029C8.14439 5.95424 9.0528 5.625 10 5.625C10.9472 5.625 11.8556 5.95424 12.5254 6.54029C13.1952 7.12634 13.5714 7.9212 13.5714 8.75C13.5714 9.16038 13.4791 9.56674 13.2996 9.94589C13.1201 10.325 12.857 10.6695 12.5254 10.9597C12.1937 11.2499 11.8 11.4801 11.3667 11.6371C10.9334 11.7942 10.469 11.875 10 11.875V11.875ZM10 0C7.34784 0 4.8043 0.921872 2.92893 2.56282C1.05357 4.20376 0 6.42936 0 8.75C0 15.3125 10 25 10 25C10 25 20 15.3125 20 8.75C20 6.42936 18.9464 4.20376 17.0711 2.56282C15.1957 0.921872 12.6522 0 10 0V0Z" fill="black"/>
</svg>
