<svg width="1026" height="627" viewBox="0 0 1026 627" fill="none" xmlns="http://www.w3.org/2000/svg">
<g clip-path="url(#clip0_108_2)">
<path d="M1014 581.821C1010.02 592.822 1005.12 603.377 999.374 613.345C996.676 618.099 993.717 622.659 990.514 627H0C0.891303 626.221 6.12325 621.476 14.2609 613.345C20.0989 607.522 27.4254 599.951 35.6521 590.841L140.05 566.668C141.399 566.356 142.773 566.199 144.15 566.199L255.447 566.019H255.563L310.69 565.939H310.815L357.341 565.879H387.797H418.993L546.823 565.679H547.028H556.931H574.329H596.05H601.826L623.779 565.4H631.034L694.887 565.3H715.28H725.084L798.839 565.19H820.801L890.661 565.08L949.63 565C951.272 565.001 952.909 565.219 954.506 565.649L1014 581.821Z" fill="#E2CAAE"/>
<path opacity="0.4" d="M14.227 614H997C994.309 618.525 991.357 622.867 988.161 627H0C0.871402 626.211 6.09093 621.693 14.227 614Z" fill="black"/>
<path d="M609.22 302.74L607 303.17L506.64 322.45C477.49 328.05 447.92 333.68 418.31 331.53C396.86 329.97 376.82 323.61 356.21 318.03C344.56 314.87 332.21 313.61 328.26 300.57C322.81 282.57 331.68 255.92 333.77 237.68C335.77 219.78 336.95 201.43 333.39 183.74C332.599 179.765 331.557 175.843 330.27 172C326.7 161.41 321.09 150.4 324.12 139.65C326.51 131.12 333.8 125.03 340.62 119.39C353.98 108.39 367.62 96.06 372.92 79.57C375.52 71.57 376.01 62.96 378.81 55.02C384.12 39.92 397.46 28.63 412.3 22.65C427.14 16.67 443.46 15.4 459.47 15.4C473.607 15.4008 487.728 16.3395 501.74 18.21C517.02 20.21 532.44 23.5 545.87 31.08C559.3 38.66 570.62 51.08 573.75 66.22C578.18 87.63 565.88 110.43 572.48 131.22C575.8 141.73 583.48 150.22 588.81 159.84C593.156 167.887 595.839 176.726 596.698 185.832C597.556 194.937 596.575 204.122 593.81 212.84C587.43 232.61 571.81 252.61 579.81 271.78C584.9 283.97 597.9 290.48 606.96 300.14C607.767 301.007 608.52 301.873 609.22 302.74Z" fill="black"/>
<path opacity="0.1" d="M607 300.22V303.17L506.64 322.45C477.49 328.05 447.92 333.68 418.31 331.53C396.86 329.97 376.82 323.61 356.21 318.03C344.56 314.87 332.21 313.61 328.26 300.57C322.81 282.57 331.68 255.92 333.77 237.68C335.77 219.78 366.56 154.43 363 136.74L547 144.74C548.24 154.51 596.87 203.55 593.84 212.92C587.46 232.69 571.84 252.69 579.84 271.86C584.94 284.05 597.94 290.56 607 300.22Z" fill="black"/>
<path d="M419 250.74C420.09 256.93 420.67 263.74 417.51 269.14C413.3 276.38 404.12 278.69 395.91 280.33L367.41 286.03C365.47 286.42 363.41 286.86 361.96 288.19C360.25 289.72 359.67 292.14 359.42 294.42C358.27 304.74 361.92 314.91 365.25 324.74C371.98 344.65 377.63 364.98 386.14 384.19C394.65 403.4 406.33 421.74 423 434.58C439.67 447.42 461.73 454.26 482.14 449.24C499.92 444.87 514.5 432.32 527.07 419.01C537.44 408.01 547.14 396.01 552.17 381.74C555.64 371.94 556.77 361.5 557.86 351.16C559.547 335.307 561.233 319.453 562.92 303.6C563.71 296.16 564.23 287.79 559.4 282.08C557.28 279.57 554.4 277.9 551.46 276.35C540.52 270.54 529 265.74 518.82 258.74C508.64 251.74 499.61 242.1 496.52 230.14C494.67 222.96 495 215.14 491.85 208.45C488.33 200.95 480.85 195.87 472.85 193.64C464.85 191.41 456.41 191.71 448.17 192.64C439.93 193.57 408.17 195.95 404.76 205.24C402.93 210.24 410.52 220.97 412.32 225.89C415.283 233.958 417.518 242.274 419 250.74Z" fill="#B77D67"/>
<path d="M487.59 359.48L504.3 324.1C512.13 307.52 520.13 290.1 519.3 271.79C519.14 268.15 519.1 263.6 522.3 261.95C523.689 261.383 525.203 261.19 526.69 261.39C544.282 262.29 561.642 265.801 578.2 271.81C581.41 272.97 584.7 274.31 586.95 276.87C589.2 279.43 590.11 282.87 590.88 286.17C593.503 297.328 595.417 308.64 596.61 320.04C599.61 348.26 598.12 376.73 596.61 405.04L592.17 491.47C592.194 492.696 591.945 493.912 591.44 495.03C590.34 497.03 587.86 497.7 585.63 498.08C577.04 499.55 568.26 499.25 559.56 498.92C498.36 496.6 436.84 493.04 376.04 500.46C376.313 491.467 376.17 482.467 375.61 473.46C373.2 434.57 363.12 396.63 353.22 358.95C347.45 336.95 341.86 312.95 351.15 292.22C352.516 288.946 354.48 285.955 356.94 283.4C360.89 279.53 366.28 277.49 371.62 276.03C380.831 273.524 390.372 272.445 399.91 272.83L462.96 410.1C465.84 416.38 468.21 422.99 471.08 429.19C473.66 418.48 470.56 405.93 473.66 394.32C477 382.27 482.26 370.74 487.59 359.48Z" fill="#D73D6C"/>
<path d="M481 453.93C492.28 454.64 503.24 448.86 511 440.69C518.76 432.52 523.88 422.16 528.21 411.69C534.435 396.766 539.382 381.341 543 365.58C546 352.18 548.13 338.31 546.06 324.73C543.2 305.98 532.59 288.94 530.78 270.06C530.47 266.76 530.67 262.9 533.32 260.91C534.96 259.68 537.12 259.51 539.16 259.39C558.02 258.27 578.74 258.48 593.35 270.45C597.8 274.09 601.41 278.64 605.76 282.39C616.12 291.39 630.76 295.97 637.41 307.92C639.73 312.08 640.84 316.79 642.46 321.27C646.28 331.87 652.89 341.19 659.46 350.36C653.09 377.24 645.77 404.14 639.4 431.02C635.67 446.79 631.91 462.62 626.05 477.72C622.21 487.62 617.38 497.72 618.56 508.32C619.03 512.49 620.42 516.48 621.63 520.5C625.872 534.61 627.86 549.3 627.52 564.03L342.18 564.73C355.85 545.13 359.86 521.09 358.47 497.24C357.8 485.81 355.22 474.31 349.47 464.42C340.41 448.92 324.47 438.82 308.76 430.17C297.76 424.17 285.95 457.93 274.06 454.06C275.98 440.48 276.86 388.06 276.06 374.39C275.8 369.91 275.4 365.31 276.78 361.03C277.72 358.1 279.45 355.48 280.62 352.63C285.31 341.22 280.84 326.63 288.42 316.92C293.66 310.17 302.85 308.25 310.32 304.09C317.99 299.81 323.92 293.09 330.6 287.35C343.707 276.22 359.723 269.069 376.76 266.74C381.73 274.579 384.751 283.494 385.57 292.74C386.08 298.55 385.71 304.44 386.52 310.22C387.63 318.05 390.87 325.4 394.08 332.64C407.45 362.83 420.87 393.11 437.81 421.46C442.6 429.46 447.81 437.46 454.75 443.69C461.69 449.92 471.68 454.37 481 453.93Z" fill="black"/>
<path d="M465.91 248.47C513.252 248.47 551.63 210.092 551.63 162.75C551.63 115.408 513.252 77.03 465.91 77.03C418.568 77.03 380.19 115.408 380.19 162.75C380.19 210.092 418.568 248.47 465.91 248.47Z" fill="#B77D67"/>
<path d="M420.93 276.98C423.28 254.8 414.06 233.1 403.62 213.39C398.62 203.97 393.26 194.58 390.75 184.23C388.24 173.88 388.96 162.16 395.38 153.65C400.84 146.41 409.5 142.5 417.51 138.25C440.12 126.25 460.79 108.61 470.73 85.0199C465.11 88.0799 466.57 97.2099 471.53 101.24C476.49 105.27 483.25 106.05 489.35 107.97C511.59 114.97 524.93 137.15 535.63 157.87C537.38 161.25 539.16 164.82 539.14 168.63C539.12 172.44 537.38 175.82 535.56 179.06C530.28 188.46 523.82 197.49 521.42 208C518.67 220 521.57 232.62 525.34 244.39C529.34 256.91 534.65 269.53 544.25 278.51C553.85 287.49 568.74 291.95 580.55 286.15C568.76 265.88 556.55 243.23 561.15 220.25C563.37 209.25 569.34 199.25 571.88 188.31C576.72 167.44 568.66 145.97 560.75 126.05L537.11 66.5999C533.5 57.5099 529.39 47.8099 521.11 42.6599C515.51 39.1899 508.73 38.2899 502.17 37.6599C481.05 35.7799 459.17 36.3999 439.51 44.2599C403.69 58.5699 381.23 93.8499 363.41 128.07C358.07 138.32 352.8 149.21 353.02 160.77C353.14 167.11 354.91 173.28 356.35 179.46C362.21 204.62 362.53 230.69 362.83 256.52C363.06 276.34 362.03 295.02 353.36 313.07C365.24 315.43 382.47 321.8 394.23 317.14C409.56 311.08 419 292.41 420.93 276.98Z" fill="black"/>
<g opacity="0.1">
<path opacity="0.1" d="M362.78 256.1C362.82 253.28 362.82 250.433 362.78 247.56C362.48 221.73 362.16 195.66 356.3 170.5C354.991 165.604 353.969 160.635 353.24 155.62C353.034 157.342 352.944 159.076 352.97 160.81C353.09 167.15 354.86 173.32 356.3 179.5C362.13 204.51 362.49 230.42 362.78 256.1Z" fill="black"/>
<path opacity="0.1" d="M571.88 188.31C573.193 182.467 573.631 176.462 573.18 170.49C572.984 173.46 572.549 176.41 571.88 179.31C569.34 190.31 563.37 200.22 561.15 211.25C560.193 216.115 559.924 221.09 560.35 226.03C560.509 224.09 560.776 222.16 561.15 220.25C563.37 209.22 569.34 199.27 571.88 188.31Z" fill="black"/>
<path opacity="0.1" d="M538.36 164.04C538.848 162.62 539.112 161.132 539.14 159.63C539.14 155.82 537.38 152.25 535.63 148.87C524.93 128.15 511.63 105.99 489.35 98.9699C483.25 97.0499 476.5 96.2699 471.53 92.2399C470.251 91.1385 469.205 89.7928 468.453 88.2816C467.701 86.7705 467.258 85.1245 467.15 83.4399C456.31 103.34 437.69 118.56 417.51 129.25C409.51 133.5 400.84 137.41 395.38 144.65C390.25 151.45 388.76 160.3 389.65 168.86C390.155 163.366 392.134 158.111 395.38 153.65C400.84 146.41 409.5 142.5 417.51 138.25C437.69 127.56 456.31 112.34 467.15 92.4399C467.258 94.1245 467.701 95.7705 468.453 97.2816C469.205 98.7928 470.251 100.138 471.53 101.24C476.53 105.24 483.25 106.05 489.35 107.97C511.59 114.97 524.93 137.15 535.63 157.87C536.715 159.845 537.628 161.909 538.36 164.04V164.04Z" fill="black"/>
<path opacity="0.1" d="M544.25 269.51C534.65 260.51 529.36 247.91 525.34 235.39C522.928 228.357 521.318 221.074 520.54 213.68C519.61 223.95 522.16 234.46 525.34 244.39C529.34 256.91 534.65 269.53 544.25 278.51C553.85 287.49 568.74 291.95 580.55 286.15C579.13 283.72 577.72 281.25 576.32 278.76C565.35 281.85 552.75 277.45 544.25 269.51Z" fill="black"/>
<path opacity="0.1" d="M420.93 267.98C419 283.41 409.56 302.08 394.19 308.18C383.52 312.41 368.33 307.55 356.74 304.86C355.743 307.667 354.601 310.42 353.32 313.11C365.2 315.47 382.43 321.84 394.19 317.18C409.56 311.08 419 292.41 420.93 276.98C421.328 273.119 421.401 269.233 421.15 265.36C421.09 266.23 421 267.11 420.93 267.98Z" fill="black"/>
</g>
<path d="M542.1 515.92C526.65 513.47 510.97 508.74 495.65 511.92C486.77 513.76 478.65 518.18 471.27 523.52C475.33 526.77 480.07 529.67 482.65 534.19C484.251 537.317 485.454 540.633 486.23 544.06C487.85 550.06 489.48 556.18 489.73 562.42C489.98 568.66 488.73 575.16 485.01 580.19C504.49 582.11 523.37 577.31 542.37 572.62C544.543 572.239 546.611 571.404 548.44 570.17C551.44 567.81 552.32 563.61 552.34 559.78C552.34 552.94 550.42 546.27 548.47 539.71C546.15 531.84 544.43 523.74 542.1 515.92Z" fill="#D73D6C"/>
<path d="M646.42 347.25C654.09 348.25 660.04 354.44 664.42 360.8C676.71 378.5 682.01 399.96 687.91 420.69C695.243 446.47 703.867 471.843 713.78 496.81C715.914 502.576 718.509 508.161 721.54 513.51C724.01 517.64 727.01 521.61 728.1 526.3C730.74 537.64 721.39 548.3 711.64 554.62C706.443 558.123 700.768 560.858 694.79 562.74C688.97 564.48 682.9 565.14 676.87 565.8L621.36 571.8C595.81 574.58 570.03 577.36 544.47 574.68C542.86 569.08 546.02 565.12 545.79 559.29C545.63 555.12 543.79 551.24 542.15 547.4C539.126 540.561 537.128 533.313 536.22 525.89C535.93 523.16 535.83 520.36 534.79 517.82C533.75 515.28 531.52 513 528.79 512.82C543.79 511.33 555.18 508.5 570.18 507C575.75 506.44 581.54 505.81 586.29 502.85C592.18 499.18 595.48 492.56 598.1 486.14C604.59 470.24 608.77 452.72 605.36 435.88C602.56 422.07 594.75 409.21 594.79 395.12C594.79 386.73 597.65 378.6 601.03 370.92C604.61 362.8 609.28 354.5 617.14 350.38C625 346.26 637.55 346.05 646.42 347.25Z" fill="black"/>
<path d="M298.81 334.26C302.44 325.64 306.13 316.74 306.23 307.39C306.34 297.28 302.23 287.68 299.09 278.08C295.207 266.334 292.621 254.199 291.38 241.89C291.122 240.711 291.3 239.478 291.88 238.42C292.71 237.25 294.31 237.01 295.72 236.7C302.64 235.12 307.87 229.53 312.19 223.9C318.892 215.205 324.551 205.754 329.05 195.74C332.36 188.37 336.84 179.38 344.92 179.31C341.667 194.589 337.635 209.692 332.84 224.56C341.29 222.4 349.32 219.26 357.77 217.1C359.424 216.578 361.157 216.348 362.89 216.42C367.95 216.95 371.05 223.8 368.11 227.95C372.24 232.79 379.11 234.09 384.51 237.41C389.91 240.73 393.79 248.95 388.99 253.12C388.05 253.93 386.86 254.5 386.18 255.54C383.86 259.12 389.54 263.23 389.07 267.47C388.69 270.94 384.24 272.56 380.87 271.64C377.5 270.72 374.87 268.2 371.87 266.35C368.87 264.5 364.95 263.35 362.04 265.27C361.26 274.68 360.42 284.27 356.35 292.84C354.86 295.97 352.95 298.9 351.75 302.15C350.602 305.694 349.89 309.364 349.63 313.08L346 346.27C328.68 349.74 313.15 344.55 298.81 334.26Z" fill="#B77D67"/>
<path d="M294.58 364.01L291.39 342.42C291.085 340.662 290.914 338.884 290.88 337.1C290.88 332.1 293.08 327.33 295.21 322.78C312.86 331.02 331.94 333.95 351.41 333.96C353.98 333.96 356.91 333.72 358.51 331.71C361.82 335.52 361.92 341.65 360.51 346.49C359.1 351.33 356.39 355.69 354.59 360.41C353.68 362.8 352.94 365.41 351.2 367.25C348.5 370.16 344.12 370.66 340.14 370.64C335.953 370.614 331.776 370.215 327.66 369.45C317 367.47 305.24 362.1 294.58 364.01Z" fill="#D73D6C"/>
<path d="M360.41 363.13C346.71 361.57 333.1 359.37 319.58 356.53C312.95 355.14 306.26 353.59 299.5 353.86C295.1 354.04 290.37 354.92 286.5 352.74C290.27 365.57 290.5 379.09 285.99 391.68C283.32 399.18 279.25 406.17 277.29 413.89C273.21 430.04 278.81 447.65 273.71 463.51C273.171 465.582 272.11 467.483 270.63 469.03C269.07 470.46 266.94 471.2 265.5 472.75C263.38 475.03 263.25 478.46 263.24 481.57L263.15 509.12C263.09 526.66 263.32 545.26 272.58 560.12C283.14 577.12 305.37 585.93 324.72 580.76C329.865 579.444 334.684 577.086 338.88 573.83C345.6 568.49 349.88 560.77 354.07 553.25C359.07 544.25 364.07 535.05 365.68 524.92C366.82 517.75 366.18 510.43 365.36 503.22C360.84 463.22 351.03 423.56 353.14 383.41C353.456 376.07 355.991 368.999 360.41 363.13V363.13Z" fill="black"/>
<path d="M417.67 529.13C410.72 529.53 403.72 529.93 396.8 529.13C391.8 528.53 386.92 527.3 381.96 526.46C368.414 524.272 354.556 525.042 341.335 528.715C328.115 532.388 315.846 538.878 305.37 547.74C301.53 551.02 297.65 556.05 299.77 560.64C302.05 565.58 309.02 565.44 314.39 564.52C308.594 567.288 303.474 571.292 299.39 576.25C297.89 578.08 296.47 580.25 296.76 582.62C297.37 587.57 304.09 588.47 309.06 588.04C307.44 589.78 308.53 592.86 310.59 594.04C312.65 595.22 315.21 594.98 317.54 594.55C322.691 593.607 327.668 591.884 332.3 589.44C331.36 591.89 332.99 594.76 335.3 595.98C337.61 597.2 340.42 597.11 343.01 596.69C355.23 594.69 365.43 586.19 377.35 582.85C396.41 577.52 416.35 586.02 436.16 586.62C442.36 586.81 448.72 586.18 454.37 583.62C461.3 580.47 466.89 574.56 474.21 572.46C482.34 570.14 491.67 572.81 499.11 568.8C504.52 565.89 499.64 543.46 498.26 539.14C495.73 531.24 493.19 526 484.76 525.2C463.43 523.11 439.16 527.89 417.67 529.13Z" fill="#B77D67"/>
<path d="M470.88 523.01C470.88 523.01 503.17 550.34 484.54 580.16L520.54 567.73V541.64C520.54 540.4 506.87 521.77 506.87 521.77L490.72 519.28L470.88 523.01Z" fill="#D73D6C"/>
<g opacity="0.1">
<path opacity="0.1" d="M157.34 453.23C156.837 453.767 156.303 454.275 155.74 454.75C156.31 454.75 156.87 454.66 157.44 454.6C157.42 454.14 157.39 453.68 157.34 453.23Z" fill="black"/>
<path opacity="0.1" d="M148.28 447.29C149.53 447.21 150.76 447.08 152 446.9C153.113 446.759 154.2 446.463 155.23 446.02C154.724 445.02 154.143 444.061 153.49 443.15C152.868 443.529 152.194 443.815 151.49 444C150.509 445.18 149.436 446.281 148.28 447.29Z" fill="black"/>
<path opacity="0.1" d="M117.73 457.96C117.723 454.169 118.738 450.446 120.669 447.183C122.599 443.92 125.374 441.238 128.701 439.42C132.028 437.602 135.784 436.715 139.573 436.852C143.362 436.99 147.043 438.146 150.23 440.2L150.55 439.86C148.47 438.01 146.045 436.589 143.414 435.68C140.782 434.771 137.997 434.392 135.219 434.564C132.44 434.736 129.723 435.457 127.224 436.684C124.725 437.911 122.494 439.62 120.659 441.713C118.824 443.806 117.421 446.242 116.531 448.88C115.641 451.518 115.282 454.306 115.475 457.083C115.667 459.86 116.408 462.572 117.653 465.061C118.898 467.551 120.623 469.77 122.73 471.59C119.496 467.786 117.723 462.953 117.73 457.96Z" fill="black"/>
</g>
<g opacity="0.1">
<path opacity="0.1" d="M165.68 480.83C166.92 480.75 168.16 480.62 169.39 480.44C170.873 480.302 172.303 479.823 173.57 479.04C174.974 480.074 176.145 481.392 177.006 482.908C177.868 484.424 178.4 486.105 178.57 487.84C178.618 487.405 178.642 486.968 178.64 486.53C178.649 484.588 178.202 482.671 177.333 480.933C176.465 479.196 175.199 477.688 173.64 476.53C172.373 477.31 170.942 477.786 169.46 477.92L168.46 478.05C167.607 479.047 166.677 479.977 165.68 480.83Z" fill="black"/>
<path opacity="0.1" d="M166.18 476.59C166.595 476.595 167.009 476.625 167.42 476.68C168.07 475.99 168.71 475.25 169.36 474.53C167.522 474.039 165.595 473.978 163.729 474.351C161.863 474.724 160.108 475.521 158.6 476.681C157.091 477.842 155.87 479.333 155.031 481.041C154.192 482.749 153.757 484.627 153.76 486.53C153.76 486.95 153.76 487.36 153.82 487.77C154.127 484.706 155.562 481.865 157.846 479.799C160.13 477.733 163.1 476.589 166.18 476.59V476.59Z" fill="black"/>
</g>
<g opacity="0.1">
<path opacity="0.1" d="M107.05 480.83C105.81 480.75 104.57 480.62 103.34 480.44C101.857 480.302 100.427 479.823 99.16 479.04C97.7559 480.074 96.5852 481.392 95.7237 482.908C94.8623 484.424 94.3295 486.105 94.16 487.84C94.1115 487.405 94.0881 486.968 94.09 486.53C94.0806 484.588 94.5283 482.671 95.3968 480.933C96.2654 479.196 97.5306 477.688 99.09 476.53C100.357 477.31 101.788 477.786 103.27 477.92L104.27 478.05C105.118 479.052 106.048 479.982 107.05 480.83V480.83Z" fill="black"/>
<path opacity="0.1" d="M106.55 476.59C106.132 476.595 105.715 476.625 105.3 476.68C104.66 475.99 104.02 475.25 103.37 474.53C105.209 474.039 107.135 473.978 109.001 474.351C110.867 474.724 112.622 475.521 114.131 476.681C115.639 477.842 116.86 479.333 117.699 481.041C118.538 482.749 118.973 484.627 118.97 486.53C118.97 486.95 118.97 487.36 118.91 487.77C118.603 484.706 117.168 481.865 114.884 479.799C112.6 477.733 109.63 476.589 106.55 476.59V476.59Z" fill="black"/>
</g>
<path d="M797.83 587.81L653.69 606.88L646.48 607.83L576.01 570.19V561.38L796.23 537.36L797.83 587.81Z" fill="#9C9CA1"/>
<path d="M616.85 574.19L773 555.78L771.4 584.61L649.77 593.53L616.85 574.19Z" fill="#939498"/>
<path opacity="0.4" d="M653.69 597.41V606.87L646.48 607.87L576 570.19V561.38L643.27 597.38C643.27 597.38 652.09 598.21 653.69 597.41Z" fill="black"/>
<path d="M681.36 447.26L649 597.31C648.674 598.812 648.714 600.371 649.117 601.854C649.52 603.338 650.274 604.703 651.315 605.833C652.357 606.964 653.655 607.827 655.1 608.351C656.546 608.874 658.096 609.042 659.62 608.84L864.35 581.74C866.133 581.505 867.814 580.772 869.201 579.626C870.587 578.48 871.623 576.967 872.19 575.26L916.36 442.06C916.848 440.582 916.969 439.008 916.714 437.472C916.458 435.937 915.833 434.487 914.892 433.247C913.951 432.007 912.723 431.015 911.313 430.355C909.904 429.695 908.355 429.388 906.8 429.46L690.28 439.74C688.174 439.84 686.159 440.63 684.547 441.99C682.934 443.349 681.814 445.201 681.36 447.26V447.26Z" fill="#57575B"/>
<path d="M782.81 522.24C780.15 522.24 778.02 521.74 776.42 520.74C774.82 519.72 774.02 518.17 774.02 516.09C774.02 514.99 774.21 514.15 774.59 513.57C774.97 512.99 775.53 512.7 776.27 512.7C776.81 512.7 777.25 512.84 777.59 513.12C777.93 513.4 778.1 513.76 778.1 514.2C778.1 514.6 778.07 514.95 778.01 515.25C778.01 515.33 777.99 515.47 777.95 515.67C777.93 515.87 777.92 516.08 777.92 516.3C777.92 517.2 778.37 517.87 779.27 518.31C780.19 518.75 781.47 518.97 783.11 518.97C784.81 518.97 786.14 518.67 787.1 518.07C788.06 517.45 788.54 516.59 788.54 515.49C788.54 514.81 788.32 514.23 787.88 513.75C787.44 513.25 786.89 512.84 786.23 512.52C785.57 512.18 784.64 511.77 783.44 511.29C781.9 510.69 780.64 510.12 779.66 509.58C778.7 509.04 777.87 508.31 777.17 507.39C776.49 506.45 776.15 505.29 776.15 503.91C776.15 502.47 776.53 501.19 777.29 500.07C778.07 498.95 779.18 498.08 780.62 497.46C782.08 496.84 783.79 496.53 785.75 496.53C787.21 496.53 788.55 496.75 789.77 497.19C790.99 497.61 791.96 498.26 792.68 499.14C793.42 500.02 793.79 501.1 793.79 502.38C793.79 503.64 793.6 504.59 793.22 505.23C792.84 505.87 792.28 506.19 791.54 506.19C791.02 506.19 790.58 506.03 790.22 505.71C789.88 505.39 789.71 505.01 789.71 504.57C789.71 504.19 789.74 503.84 789.8 503.52C789.86 502.92 789.89 502.54 789.89 502.38C789.89 501.54 789.48 500.9 788.66 500.46C787.84 500.02 786.82 499.8 785.6 499.8C783.88 499.8 782.56 500.12 781.64 500.76C780.74 501.38 780.29 502.26 780.29 503.4C780.29 504.16 780.52 504.81 780.98 505.35C781.46 505.89 782.05 506.34 782.75 506.7C783.45 507.06 784.43 507.49 785.69 507.99C787.21 508.61 788.43 509.17 789.35 509.67C790.27 510.17 791.05 510.85 791.69 511.71C792.35 512.57 792.68 513.63 792.68 514.89C792.68 517.25 791.78 519.07 789.98 520.35C788.2 521.61 785.81 522.24 782.81 522.24ZM822.721 509.04C823.181 509.04 823.511 509.14 823.711 509.34C823.931 509.54 824.041 509.8 824.041 510.12C824.041 510.64 823.881 511.1 823.561 511.5C823.261 511.9 822.781 512.11 822.121 512.13C820.521 512.17 819.101 512.05 817.861 511.77C816.441 514.75 814.721 517.23 812.701 519.21C810.701 521.17 808.691 522.15 806.671 522.15C804.591 522.15 803.041 520.94 802.021 518.52C801.001 516.1 800.491 512.83 800.491 508.71C800.491 505.19 800.741 502.03 801.241 499.23C801.421 498.19 801.671 497.49 801.991 497.13C802.331 496.75 802.901 496.56 803.701 496.56C805.021 496.56 805.681 497.13 805.681 498.27C805.681 498.39 805.661 498.61 805.621 498.93C805.021 502.53 804.721 505.79 804.721 508.71C804.721 511.77 804.971 514.1 805.471 515.7C805.991 517.28 806.761 518.07 807.781 518.07C808.821 518.07 809.951 517.35 811.171 515.91C812.391 514.47 813.511 512.66 814.531 510.48C813.311 509.72 812.391 508.74 811.771 507.54C811.151 506.32 810.841 504.92 810.841 503.34C810.841 501.76 811.081 500.43 811.561 499.35C812.061 498.25 812.731 497.43 813.571 496.89C814.431 496.35 815.381 496.08 816.421 496.08C817.701 496.08 818.711 496.54 819.451 497.46C820.211 498.38 820.591 499.64 820.591 501.24C820.591 503.54 820.091 506.05 819.091 508.77C820.151 508.95 821.361 509.04 822.721 509.04ZM813.871 503.13C813.871 505.09 814.501 506.54 815.761 507.48C816.541 505.24 816.931 503.39 816.931 501.93C816.931 501.09 816.821 500.48 816.601 500.1C816.381 499.7 816.081 499.5 815.701 499.5C815.161 499.5 814.721 499.82 814.381 500.46C814.041 501.08 813.871 501.97 813.871 503.13Z" fill="#D73D6C"/>
</g>
<defs>
<clipPath id="clip0_108_2">
<rect width="1026" height="627" fill="white"/>
</clipPath>
</defs>
</svg>
