<svg width="1150" height="628" viewBox="0 0 1150 628" fill="none" xmlns="http://www.w3.org/2000/svg">
<path d="M1138 581.821C1134.02 592.822 1129.12 603.377 1123.37 613.345C1120.68 618.099 1117.72 622.659 1114.51 627H124C124.891 626.221 130.123 621.476 138.261 613.345C144.099 607.522 151.425 599.951 159.652 590.841L264.05 566.668C265.399 566.356 266.773 566.199 268.15 566.199L379.447 566.019H379.563L434.69 565.939H434.815L481.341 565.879H511.797H542.993L670.823 565.679H671.028H680.931H698.329H720.05H725.826L747.779 565.4H755.034L818.887 565.3H839.28H849.084L922.839 565.19H944.801L1014.66 565.08L1073.63 565C1075.27 565.001 1076.91 565.219 1078.51 565.649L1138 581.821Z" fill="#E2CAAE"/>
<path opacity="0.4" d="M138.227 614H1121C1118.31 618.525 1115.36 622.867 1112.16 627H124C124.871 626.211 130.091 621.693 138.227 614Z" fill="black"/>
<path d="M733.22 302.74L731 303.17L630.64 322.45C601.49 328.05 571.92 333.68 542.31 331.53C520.86 329.97 500.82 323.61 480.21 318.03C468.56 314.87 456.21 313.61 452.26 300.57C446.81 282.57 455.68 255.92 457.77 237.68C459.77 219.78 460.95 201.43 457.39 183.74C456.599 179.765 455.557 175.843 454.27 172C450.7 161.41 445.09 150.4 448.12 139.65C450.51 131.12 457.8 125.03 464.62 119.39C477.98 108.39 491.62 96.06 496.92 79.57C499.52 71.57 500.01 62.96 502.81 55.02C508.12 39.92 521.46 28.63 536.3 22.65C551.14 16.67 567.46 15.4 583.47 15.4C597.607 15.4008 611.728 16.3395 625.74 18.21C641.02 20.21 656.44 23.5 669.87 31.08C683.3 38.66 694.62 51.08 697.75 66.22C702.18 87.63 689.88 110.43 696.48 131.22C699.8 141.73 707.48 150.22 712.81 159.84C717.156 167.887 719.839 176.726 720.698 185.832C721.556 194.937 720.575 204.122 717.81 212.84C711.43 232.61 695.81 252.61 703.81 271.78C708.9 283.97 721.9 290.48 730.96 300.14C731.767 301.007 732.52 301.873 733.22 302.74Z" fill="black"/>
<path opacity="0.1" d="M731 300.22V303.17L630.64 322.45C601.49 328.05 571.92 333.68 542.31 331.53C520.86 329.97 500.82 323.61 480.21 318.03C468.56 314.87 456.21 313.61 452.26 300.57C446.81 282.57 455.68 255.92 457.77 237.68C459.77 219.78 490.56 154.43 487 136.74L671 144.74C672.24 154.51 720.87 203.55 717.84 212.92C711.46 232.69 695.84 252.69 703.84 271.86C708.94 284.05 721.94 290.56 731 300.22Z" fill="black"/>
<path d="M543 250.74C544.09 256.93 544.67 263.74 541.51 269.14C537.3 276.38 528.12 278.69 519.91 280.33L491.41 286.03C489.47 286.42 487.41 286.86 485.96 288.19C484.25 289.72 483.67 292.14 483.42 294.42C482.27 304.74 485.92 314.91 489.25 324.74C495.98 344.65 501.63 364.98 510.14 384.19C518.65 403.4 530.33 421.74 547 434.58C563.67 447.42 585.73 454.26 606.14 449.24C623.92 444.87 638.5 432.32 651.07 419.01C661.44 408.01 671.14 396.01 676.17 381.74C679.64 371.94 680.77 361.5 681.86 351.16C683.547 335.307 685.233 319.453 686.92 303.6C687.71 296.16 688.23 287.79 683.4 282.08C681.28 279.57 678.4 277.9 675.46 276.35C664.52 270.54 653 265.74 642.82 258.74C632.64 251.74 623.61 242.1 620.52 230.14C618.67 222.96 619 215.14 615.85 208.45C612.33 200.95 604.85 195.87 596.85 193.64C588.85 191.41 580.41 191.71 572.17 192.64C563.93 193.57 532.17 195.95 528.76 205.24C526.93 210.24 534.52 220.97 536.32 225.89C539.283 233.958 541.518 242.274 543 250.74Z" fill="#B77D67"/>
<path d="M611.59 359.48L628.3 324.1C636.13 307.52 644.13 290.1 643.3 271.79C643.14 268.15 643.1 263.6 646.3 261.95C647.689 261.383 649.203 261.19 650.69 261.39C668.282 262.29 685.642 265.801 702.2 271.81C705.41 272.97 708.7 274.31 710.95 276.87C713.2 279.43 714.11 282.87 714.88 286.17C717.503 297.328 719.417 308.64 720.61 320.04C723.61 348.26 722.12 376.73 720.61 405.04L716.17 491.47C716.194 492.696 715.945 493.912 715.44 495.03C714.34 497.03 711.86 497.7 709.63 498.08C701.04 499.55 692.26 499.25 683.56 498.92C622.36 496.6 560.84 493.04 500.04 500.46C500.313 491.467 500.17 482.467 499.61 473.46C497.2 434.57 487.12 396.63 477.22 358.95C471.45 336.95 465.86 312.95 475.15 292.22C476.516 288.946 478.48 285.955 480.94 283.4C484.89 279.53 490.28 277.49 495.62 276.03C504.831 273.524 514.372 272.445 523.91 272.83L586.96 410.1C589.84 416.38 592.21 422.99 595.08 429.19C597.66 418.48 594.56 405.93 597.66 394.32C601 382.27 606.26 370.74 611.59 359.48Z" fill="#D73D6C"/>
<path d="M605 453.93C616.28 454.64 627.24 448.86 635 440.69C642.76 432.52 647.88 422.16 652.21 411.69C658.435 396.766 663.382 381.341 667 365.58C670 352.18 672.13 338.31 670.06 324.73C667.2 305.98 656.59 288.94 654.78 270.06C654.47 266.76 654.67 262.9 657.32 260.91C658.96 259.68 661.12 259.51 663.16 259.39C682.02 258.27 702.74 258.48 717.35 270.45C721.8 274.09 725.41 278.64 729.76 282.39C740.12 291.39 754.76 295.97 761.41 307.92C763.73 312.08 764.84 316.79 766.46 321.27C770.28 331.87 776.89 341.19 783.46 350.36C777.09 377.24 769.77 404.14 763.4 431.02C759.67 446.79 755.91 462.62 750.05 477.72C746.21 487.62 741.38 497.72 742.56 508.32C743.03 512.49 744.42 516.48 745.63 520.5C749.872 534.61 751.86 549.3 751.52 564.03L466.18 564.73C479.85 545.13 483.86 521.09 482.47 497.24C481.8 485.81 479.22 474.31 473.47 464.42C464.41 448.92 448.47 438.82 432.76 430.17C421.76 424.17 409.95 457.93 398.06 454.06C399.98 440.48 400.86 388.06 400.06 374.39C399.8 369.91 399.4 365.31 400.78 361.03C401.72 358.1 403.45 355.48 404.62 352.63C409.31 341.22 404.84 326.63 412.42 316.92C417.66 310.17 426.85 308.25 434.32 304.09C441.99 299.81 447.92 293.09 454.6 287.35C467.707 276.22 483.723 269.069 500.76 266.74C505.73 274.579 508.751 283.494 509.57 292.74C510.08 298.55 509.71 304.44 510.52 310.22C511.63 318.05 514.87 325.4 518.08 332.64C531.45 362.83 544.87 393.11 561.81 421.46C566.6 429.46 571.81 437.46 578.75 443.69C585.69 449.92 595.68 454.37 605 453.93Z" fill="black"/>
<path d="M589.91 248.47C637.252 248.47 675.63 210.092 675.63 162.75C675.63 115.408 637.252 77.03 589.91 77.03C542.568 77.03 504.19 115.408 504.19 162.75C504.19 210.092 542.568 248.47 589.91 248.47Z" fill="#B77D67"/>
<path d="M544.93 276.98C547.28 254.8 538.06 233.1 527.62 213.39C522.62 203.97 517.26 194.58 514.75 184.23C512.24 173.88 512.96 162.16 519.38 153.65C524.84 146.41 533.5 142.5 541.51 138.25C564.12 126.25 584.79 108.61 594.73 85.0199C589.11 88.0799 590.57 97.2099 595.53 101.24C600.49 105.27 607.25 106.05 613.35 107.97C635.59 114.97 648.93 137.15 659.63 157.87C661.38 161.25 663.16 164.82 663.14 168.63C663.12 172.44 661.38 175.82 659.56 179.06C654.28 188.46 647.82 197.49 645.42 208C642.67 220 645.57 232.62 649.34 244.39C653.34 256.91 658.65 269.53 668.25 278.51C677.85 287.49 692.74 291.95 704.55 286.15C692.76 265.88 680.55 243.23 685.15 220.25C687.37 209.25 693.34 199.25 695.88 188.31C700.72 167.44 692.66 145.97 684.75 126.05L661.11 66.5999C657.5 57.5099 653.39 47.8099 645.11 42.6599C639.51 39.1899 632.73 38.2899 626.17 37.6599C605.05 35.7799 583.17 36.3999 563.51 44.2599C527.69 58.5699 505.23 93.8499 487.41 128.07C482.07 138.32 476.8 149.21 477.02 160.77C477.14 167.11 478.91 173.28 480.35 179.46C486.21 204.62 486.53 230.69 486.83 256.52C487.06 276.34 486.03 295.02 477.36 313.07C489.24 315.43 506.47 321.8 518.23 317.14C533.56 311.08 543 292.41 544.93 276.98Z" fill="black"/>
<g opacity="0.1">
<path opacity="0.1" d="M486.78 256.1C486.82 253.28 486.82 250.433 486.78 247.56C486.48 221.73 486.16 195.66 480.3 170.5C478.991 165.604 477.969 160.635 477.24 155.62C477.034 157.342 476.944 159.076 476.97 160.81C477.09 167.15 478.86 173.32 480.3 179.5C486.13 204.51 486.49 230.42 486.78 256.1Z" fill="black"/>
<path opacity="0.1" d="M695.88 188.31C697.193 182.467 697.631 176.462 697.18 170.49C696.984 173.46 696.549 176.41 695.88 179.31C693.34 190.31 687.37 200.22 685.15 211.25C684.193 216.115 683.924 221.09 684.35 226.03C684.509 224.09 684.776 222.16 685.15 220.25C687.37 209.22 693.34 199.27 695.88 188.31Z" fill="black"/>
<path opacity="0.1" d="M662.36 164.04C662.848 162.62 663.112 161.132 663.14 159.63C663.14 155.82 661.38 152.25 659.63 148.87C648.93 128.15 635.63 105.99 613.35 98.9699C607.25 97.0499 600.5 96.2699 595.53 92.2399C594.251 91.1385 593.205 89.7928 592.453 88.2816C591.701 86.7705 591.258 85.1245 591.15 83.4399C580.31 103.34 561.69 118.56 541.51 129.25C533.51 133.5 524.84 137.41 519.38 144.65C514.25 151.45 512.76 160.3 513.65 168.86C514.155 163.366 516.134 158.111 519.38 153.65C524.84 146.41 533.5 142.5 541.51 138.25C561.69 127.56 580.31 112.34 591.15 92.4399C591.258 94.1245 591.701 95.7705 592.453 97.2816C593.205 98.7928 594.251 100.138 595.53 101.24C600.53 105.24 607.25 106.05 613.35 107.97C635.59 114.97 648.93 137.15 659.63 157.87C660.715 159.845 661.628 161.909 662.36 164.04V164.04Z" fill="black"/>
<path opacity="0.1" d="M668.25 269.51C658.65 260.51 653.36 247.91 649.34 235.39C646.928 228.357 645.318 221.074 644.54 213.68C643.61 223.95 646.16 234.46 649.34 244.39C653.34 256.91 658.65 269.53 668.25 278.51C677.85 287.49 692.74 291.95 704.55 286.15C703.13 283.72 701.72 281.25 700.32 278.76C689.35 281.85 676.75 277.45 668.25 269.51Z" fill="black"/>
<path opacity="0.1" d="M544.93 267.98C543 283.41 533.56 302.08 518.19 308.18C507.52 312.41 492.33 307.55 480.74 304.86C479.743 307.667 478.601 310.42 477.32 313.11C489.2 315.47 506.43 321.84 518.19 317.18C533.56 311.08 543 292.41 544.93 276.98C545.328 273.119 545.401 269.233 545.15 265.36C545.09 266.23 545 267.11 544.93 267.98Z" fill="black"/>
</g>
<path d="M666.1 515.92C650.65 513.47 634.97 508.74 619.65 511.92C610.77 513.76 602.65 518.18 595.27 523.52C599.33 526.77 604.07 529.67 606.65 534.19C608.251 537.317 609.454 540.633 610.23 544.06C611.85 550.06 613.48 556.18 613.73 562.42C613.98 568.66 612.73 575.16 609.01 580.19C628.49 582.11 647.37 577.31 666.37 572.62C668.543 572.239 670.611 571.404 672.44 570.17C675.44 567.81 676.32 563.61 676.34 559.78C676.34 552.94 674.42 546.27 672.47 539.71C670.15 531.84 668.43 523.74 666.1 515.92Z" fill="#D73D6C"/>
<path d="M770.42 347.25C778.09 348.25 784.04 354.44 788.42 360.8C800.71 378.5 806.01 399.96 811.91 420.69C819.243 446.47 827.867 471.843 837.78 496.81C839.914 502.576 842.509 508.161 845.54 513.51C848.01 517.64 851.01 521.61 852.1 526.3C854.74 537.64 845.39 548.3 835.64 554.62C830.443 558.123 824.768 560.858 818.79 562.74C812.97 564.48 806.9 565.14 800.87 565.8L745.36 571.8C719.81 574.58 694.03 577.36 668.47 574.68C666.86 569.08 670.02 565.12 669.79 559.29C669.63 555.12 667.79 551.24 666.15 547.4C663.126 540.561 661.128 533.313 660.22 525.89C659.93 523.16 659.83 520.36 658.79 517.82C657.75 515.28 655.52 513 652.79 512.82C667.79 511.33 679.18 508.5 694.18 507C699.75 506.44 705.54 505.81 710.29 502.85C716.18 499.18 719.48 492.56 722.1 486.14C728.59 470.24 732.77 452.72 729.36 435.88C726.56 422.07 718.75 409.21 718.79 395.12C718.79 386.73 721.65 378.6 725.03 370.92C728.61 362.8 733.28 354.5 741.14 350.38C749 346.26 761.55 346.05 770.42 347.25Z" fill="black"/>
<path d="M422.81 334.26C426.44 325.64 430.13 316.74 430.23 307.39C430.34 297.28 426.23 287.68 423.09 278.08C419.207 266.334 416.621 254.199 415.38 241.89C415.122 240.711 415.3 239.478 415.88 238.42C416.71 237.25 418.31 237.01 419.72 236.7C426.64 235.12 431.87 229.53 436.19 223.9C442.892 215.205 448.551 205.754 453.05 195.74C456.36 188.37 460.84 179.38 468.92 179.31C465.667 194.589 461.635 209.692 456.84 224.56C465.29 222.4 473.32 219.26 481.77 217.1C483.424 216.578 485.157 216.348 486.89 216.42C491.95 216.95 495.05 223.8 492.11 227.95C496.24 232.79 503.11 234.09 508.51 237.41C513.91 240.73 517.79 248.95 512.99 253.12C512.05 253.93 510.86 254.5 510.18 255.54C507.86 259.12 513.54 263.23 513.07 267.47C512.69 270.94 508.24 272.56 504.87 271.64C501.5 270.72 498.87 268.2 495.87 266.35C492.87 264.5 488.95 263.35 486.04 265.27C485.26 274.68 484.42 284.27 480.35 292.84C478.86 295.97 476.95 298.9 475.75 302.15C474.602 305.694 473.89 309.364 473.63 313.08L470 346.27C452.68 349.74 437.15 344.55 422.81 334.26Z" fill="#B77D67"/>
<path d="M418.58 364.01L415.39 342.42C415.085 340.662 414.914 338.884 414.88 337.1C414.88 332.1 417.08 327.33 419.21 322.78C436.86 331.02 455.94 333.95 475.41 333.96C477.98 333.96 480.91 333.72 482.51 331.71C485.82 335.52 485.92 341.65 484.51 346.49C483.1 351.33 480.39 355.69 478.59 360.41C477.68 362.8 476.94 365.41 475.2 367.25C472.5 370.16 468.12 370.66 464.14 370.64C459.953 370.614 455.776 370.215 451.66 369.45C441 367.47 429.24 362.1 418.58 364.01Z" fill="#D73D6C"/>
<path d="M484.41 363.13C470.71 361.57 457.1 359.37 443.58 356.53C436.95 355.14 430.26 353.59 423.5 353.86C419.1 354.04 414.37 354.92 410.5 352.74C414.27 365.57 414.5 379.09 409.99 391.68C407.32 399.18 403.25 406.17 401.29 413.89C397.21 430.04 402.81 447.65 397.71 463.51C397.171 465.582 396.11 467.483 394.63 469.03C393.07 470.46 390.94 471.2 389.5 472.75C387.38 475.03 387.25 478.46 387.24 481.57L387.15 509.12C387.09 526.66 387.32 545.26 396.58 560.12C407.14 577.12 429.37 585.93 448.72 580.76C453.865 579.444 458.684 577.086 462.88 573.83C469.6 568.49 473.88 560.77 478.07 553.25C483.07 544.25 488.07 535.05 489.68 524.92C490.82 517.75 490.18 510.43 489.36 503.22C484.84 463.22 475.03 423.56 477.14 383.41C477.456 376.07 479.991 368.999 484.41 363.13V363.13Z" fill="black"/>
<path d="M541.67 529.13C534.72 529.53 527.72 529.93 520.8 529.13C515.8 528.53 510.92 527.3 505.96 526.46C492.414 524.272 478.556 525.042 465.335 528.715C452.115 532.388 439.846 538.878 429.37 547.74C425.53 551.02 421.65 556.05 423.77 560.64C426.05 565.58 433.02 565.44 438.39 564.52C432.594 567.288 427.474 571.292 423.39 576.25C421.89 578.08 420.47 580.25 420.76 582.62C421.37 587.57 428.09 588.47 433.06 588.04C431.44 589.78 432.53 592.86 434.59 594.04C436.65 595.22 439.21 594.98 441.54 594.55C446.691 593.607 451.668 591.884 456.3 589.44C455.36 591.89 456.99 594.76 459.3 595.98C461.61 597.2 464.42 597.11 467.01 596.69C479.23 594.69 489.43 586.19 501.35 582.85C520.41 577.52 540.35 586.02 560.16 586.62C566.36 586.81 572.72 586.18 578.37 583.62C585.3 580.47 590.89 574.56 598.21 572.46C606.34 570.14 615.67 572.81 623.11 568.8C628.52 565.89 623.64 543.46 622.26 539.14C619.73 531.24 617.19 526 608.76 525.2C587.43 523.11 563.16 527.89 541.67 529.13Z" fill="#B77D67"/>
<path d="M594.88 523.01C594.88 523.01 627.17 550.34 608.54 580.16L644.54 567.73V541.64C644.54 540.4 630.87 521.77 630.87 521.77L614.72 519.28L594.88 523.01Z" fill="#D73D6C"/>
<g opacity="0.1">
<path opacity="0.1" d="M281.34 453.23C280.837 453.767 280.303 454.275 279.74 454.75C280.31 454.75 280.87 454.66 281.44 454.6C281.42 454.14 281.39 453.68 281.34 453.23Z" fill="black"/>
<path opacity="0.1" d="M272.28 447.29C273.53 447.21 274.76 447.08 276 446.9C277.113 446.759 278.2 446.463 279.23 446.02C278.724 445.02 278.143 444.061 277.49 443.15C276.868 443.529 276.194 443.815 275.49 444C274.509 445.18 273.436 446.281 272.28 447.29Z" fill="black"/>
<path opacity="0.1" d="M241.73 457.96C241.723 454.169 242.738 450.446 244.669 447.183C246.599 443.92 249.374 441.238 252.701 439.42C256.028 437.602 259.784 436.715 263.573 436.852C267.362 436.99 271.043 438.146 274.23 440.2L274.55 439.86C272.47 438.01 270.045 436.589 267.414 435.68C264.782 434.771 261.997 434.392 259.219 434.564C256.44 434.736 253.723 435.457 251.224 436.684C248.725 437.911 246.494 439.62 244.659 441.713C242.824 443.806 241.421 446.242 240.531 448.88C239.641 451.518 239.282 454.306 239.475 457.083C239.667 459.86 240.408 462.572 241.653 465.061C242.898 467.551 244.623 469.77 246.73 471.59C243.496 467.786 241.723 462.953 241.73 457.96Z" fill="black"/>
</g>
<g opacity="0.1">
<path opacity="0.1" d="M289.68 480.83C290.92 480.75 292.16 480.62 293.39 480.44C294.873 480.302 296.303 479.823 297.57 479.04C298.974 480.074 300.145 481.392 301.006 482.908C301.868 484.424 302.4 486.105 302.57 487.84C302.618 487.405 302.642 486.968 302.64 486.53C302.649 484.588 302.202 482.671 301.333 480.933C300.465 479.196 299.199 477.688 297.64 476.53C296.373 477.31 294.942 477.786 293.46 477.92L292.46 478.05C291.607 479.047 290.677 479.977 289.68 480.83Z" fill="black"/>
<path opacity="0.1" d="M290.18 476.59C290.595 476.595 291.009 476.625 291.42 476.68C292.07 475.99 292.71 475.25 293.36 474.53C291.522 474.039 289.595 473.978 287.729 474.351C285.863 474.724 284.108 475.521 282.6 476.681C281.091 477.842 279.87 479.333 279.031 481.041C278.192 482.749 277.757 484.627 277.76 486.53C277.76 486.95 277.76 487.36 277.82 487.77C278.127 484.706 279.562 481.865 281.846 479.799C284.13 477.733 287.1 476.589 290.18 476.59V476.59Z" fill="black"/>
</g>
<g opacity="0.1">
<path opacity="0.1" d="M231.05 480.83C229.81 480.75 228.57 480.62 227.34 480.44C225.857 480.302 224.427 479.823 223.16 479.04C221.756 480.074 220.585 481.392 219.724 482.908C218.862 484.424 218.33 486.105 218.16 487.84C218.111 487.405 218.088 486.968 218.09 486.53C218.081 484.588 218.528 482.671 219.397 480.933C220.265 479.196 221.531 477.688 223.09 476.53C224.357 477.31 225.788 477.786 227.27 477.92L228.27 478.05C229.118 479.052 230.048 479.982 231.05 480.83V480.83Z" fill="black"/>
<path opacity="0.1" d="M230.55 476.59C230.132 476.595 229.715 476.625 229.3 476.68C228.66 475.99 228.02 475.25 227.37 474.53C229.209 474.039 231.135 473.978 233.001 474.351C234.867 474.724 236.622 475.521 238.131 476.681C239.639 477.842 240.86 479.333 241.699 481.041C242.538 482.749 242.973 484.627 242.97 486.53C242.97 486.95 242.97 487.36 242.91 487.77C242.603 484.706 241.168 481.865 238.884 479.799C236.6 477.733 233.63 476.589 230.55 476.59V476.59Z" fill="black"/>
</g>
<path d="M921.83 587.81L777.69 606.88L770.48 607.83L700.01 570.19V561.38L920.23 537.36L921.83 587.81Z" fill="#9C9CA1"/>
<path d="M740.85 574.19L897 555.78L895.4 584.61L773.77 593.53L740.85 574.19Z" fill="#939498"/>
<path opacity="0.4" d="M777.69 597.41V606.87L770.48 607.87L700 570.19V561.38L767.27 597.38C767.27 597.38 776.09 598.21 777.69 597.41Z" fill="black"/>
<path d="M805.36 447.26L773 597.31C772.674 598.812 772.714 600.371 773.117 601.854C773.52 603.338 774.274 604.703 775.315 605.833C776.357 606.964 777.655 607.827 779.1 608.351C780.546 608.874 782.096 609.042 783.62 608.84L988.35 581.74C990.133 581.505 991.814 580.772 993.201 579.626C994.587 578.48 995.623 576.967 996.19 575.26L1040.36 442.06C1040.85 440.582 1040.97 439.008 1040.71 437.472C1040.46 435.937 1039.83 434.487 1038.89 433.247C1037.95 432.007 1036.72 431.015 1035.31 430.355C1033.9 429.695 1032.35 429.388 1030.8 429.46L814.28 439.74C812.174 439.84 810.159 440.63 808.547 441.99C806.934 443.349 805.814 445.201 805.36 447.26V447.26Z" fill="#57575B"/>
<path d="M906.81 522.24C904.15 522.24 902.02 521.74 900.42 520.74C898.82 519.72 898.02 518.17 898.02 516.09C898.02 514.99 898.21 514.15 898.59 513.57C898.97 512.99 899.53 512.7 900.27 512.7C900.81 512.7 901.25 512.84 901.59 513.12C901.93 513.4 902.1 513.76 902.1 514.2C902.1 514.6 902.07 514.95 902.01 515.25C902.01 515.33 901.99 515.47 901.95 515.67C901.93 515.87 901.92 516.08 901.92 516.3C901.92 517.2 902.37 517.87 903.27 518.31C904.19 518.75 905.47 518.97 907.11 518.97C908.81 518.97 910.14 518.67 911.1 518.07C912.06 517.45 912.54 516.59 912.54 515.49C912.54 514.81 912.32 514.23 911.88 513.75C911.44 513.25 910.89 512.84 910.23 512.52C909.57 512.18 908.64 511.77 907.44 511.29C905.9 510.69 904.64 510.12 903.66 509.58C902.7 509.04 901.87 508.31 901.17 507.39C900.49 506.45 900.15 505.29 900.15 503.91C900.15 502.47 900.53 501.19 901.29 500.07C902.07 498.95 903.18 498.08 904.62 497.46C906.08 496.84 907.79 496.53 909.75 496.53C911.21 496.53 912.55 496.75 913.77 497.19C914.99 497.61 915.96 498.26 916.68 499.14C917.42 500.02 917.79 501.1 917.79 502.38C917.79 503.64 917.6 504.59 917.22 505.23C916.84 505.87 916.28 506.19 915.54 506.19C915.02 506.19 914.58 506.03 914.22 505.71C913.88 505.39 913.71 505.01 913.71 504.57C913.71 504.19 913.74 503.84 913.8 503.52C913.86 502.92 913.89 502.54 913.89 502.38C913.89 501.54 913.48 500.9 912.66 500.46C911.84 500.02 910.82 499.8 909.6 499.8C907.88 499.8 906.56 500.12 905.64 500.76C904.74 501.38 904.29 502.26 904.29 503.4C904.29 504.16 904.52 504.81 904.98 505.35C905.46 505.89 906.05 506.34 906.75 506.7C907.45 507.06 908.43 507.49 909.69 507.99C911.21 508.61 912.43 509.17 913.35 509.67C914.27 510.17 915.05 510.85 915.69 511.71C916.35 512.57 916.68 513.63 916.68 514.89C916.68 517.25 915.78 519.07 913.98 520.35C912.2 521.61 909.81 522.24 906.81 522.24ZM946.721 509.04C947.181 509.04 947.511 509.14 947.711 509.34C947.931 509.54 948.041 509.8 948.041 510.12C948.041 510.64 947.881 511.1 947.561 511.5C947.261 511.9 946.781 512.11 946.121 512.13C944.521 512.17 943.101 512.05 941.861 511.77C940.441 514.75 938.721 517.23 936.701 519.21C934.701 521.17 932.691 522.15 930.671 522.15C928.591 522.15 927.041 520.94 926.021 518.52C925.001 516.1 924.491 512.83 924.491 508.71C924.491 505.19 924.741 502.03 925.241 499.23C925.421 498.19 925.671 497.49 925.991 497.13C926.331 496.75 926.901 496.56 927.701 496.56C929.021 496.56 929.681 497.13 929.681 498.27C929.681 498.39 929.661 498.61 929.621 498.93C929.021 502.53 928.721 505.79 928.721 508.71C928.721 511.77 928.971 514.1 929.471 515.7C929.991 517.28 930.761 518.07 931.781 518.07C932.821 518.07 933.951 517.35 935.171 515.91C936.391 514.47 937.511 512.66 938.531 510.48C937.311 509.72 936.391 508.74 935.771 507.54C935.151 506.32 934.841 504.92 934.841 503.34C934.841 501.76 935.081 500.43 935.561 499.35C936.061 498.25 936.731 497.43 937.571 496.89C938.431 496.35 939.381 496.08 940.421 496.08C941.701 496.08 942.711 496.54 943.451 497.46C944.211 498.38 944.591 499.64 944.591 501.24C944.591 503.54 944.091 506.05 943.091 508.77C944.151 508.95 945.361 509.04 946.721 509.04ZM937.871 503.13C937.871 505.09 938.501 506.54 939.761 507.48C940.541 505.24 940.931 503.39 940.931 501.93C940.931 501.09 940.821 500.48 940.601 500.1C940.381 499.7 940.081 499.5 939.701 499.5C939.161 499.5 938.721 499.82 938.381 500.46C938.041 501.08 937.871 501.97 937.871 503.13Z" fill="#D73D6C"/>
</svg>
