<svg width="52" height="54" viewBox="0 0 52 54" fill="none" xmlns="http://www.w3.org/2000/svg">
<path d="M9.81 38.24C7.15 38.24 5.02 37.74 3.42 36.74C1.82 35.72 1.02 34.17 1.02 32.09C1.02 30.99 1.21 30.15 1.59 29.57C1.97 28.99 2.53 28.7 3.27 28.7C3.81 28.7 4.25 28.84 4.59 29.12C4.93 29.4 5.1 29.76 5.1 30.2C5.1 30.6 5.07 30.95 5.01 31.25C5.01 31.33 4.99 31.47 4.95 31.67C4.93 31.87 4.92 32.08 4.92 32.3C4.92 33.2 5.37 33.87 6.27 34.31C7.19 34.75 8.47 34.97 10.11 34.97C11.81 34.97 13.14 34.67 14.1 34.07C15.06 33.45 15.54 32.59 15.54 31.49C15.54 30.81 15.32 30.23 14.88 29.75C14.44 29.25 13.89 28.84 13.23 28.52C12.57 28.18 11.64 27.77 10.44 27.29C8.9 26.69 7.64 26.12 6.66 25.58C5.7 25.04 4.87 24.31 4.17 23.39C3.49 22.45 3.15 21.29 3.15 19.91C3.15 18.47 3.53 17.19 4.29 16.07C5.07 14.95 6.18 14.08 7.62 13.46C9.08 12.84 10.79 12.53 12.75 12.53C14.21 12.53 15.55 12.75 16.77 13.19C17.99 13.61 18.96 14.26 19.68 15.14C20.42 16.02 20.79 17.1 20.79 18.38C20.79 19.64 20.6 20.59 20.22 21.23C19.84 21.87 19.28 22.19 18.54 22.19C18.02 22.19 17.58 22.03 17.22 21.71C16.88 21.39 16.71 21.01 16.71 20.57C16.71 20.19 16.74 19.84 16.8 19.52C16.86 18.92 16.89 18.54 16.89 18.38C16.89 17.54 16.48 16.9 15.66 16.46C14.84 16.02 13.82 15.8 12.6 15.8C10.88 15.8 9.56 16.12 8.64 16.76C7.74 17.38 7.29 18.26 7.29 19.4C7.29 20.16 7.52 20.81 7.98 21.35C8.46 21.89 9.05 22.34 9.75 22.7C10.45 23.06 11.43 23.49 12.69 23.99C14.21 24.61 15.43 25.17 16.35 25.67C17.27 26.17 18.05 26.85 18.69 27.71C19.35 28.57 19.68 29.63 19.68 30.89C19.68 33.25 18.78 35.07 16.98 36.35C15.2 37.61 12.81 38.24 9.81 38.24ZM49.7208 25.04C50.1808 25.04 50.5108 25.14 50.7108 25.34C50.9308 25.54 51.0408 25.8 51.0408 26.12C51.0408 26.64 50.8808 27.1 50.5608 27.5C50.2608 27.9 49.7808 28.11 49.1208 28.13C47.5208 28.17 46.1008 28.05 44.8608 27.77C43.4408 30.75 41.7208 33.23 39.7008 35.21C37.7008 37.17 35.6908 38.15 33.6708 38.15C31.5908 38.15 30.0408 36.94 29.0208 34.52C28.0008 32.1 27.4908 28.83 27.4908 24.71C27.4908 21.19 27.7408 18.03 28.2408 15.23C28.4208 14.19 28.6708 13.49 28.9908 13.13C29.3308 12.75 29.9008 12.56 30.7008 12.56C32.0208 12.56 32.6808 13.13 32.6808 14.27C32.6808 14.39 32.6608 14.61 32.6208 14.93C32.0208 18.53 31.7208 21.79 31.7208 24.71C31.7208 27.77 31.9708 30.1 32.4708 31.7C32.9908 33.28 33.7608 34.07 34.7808 34.07C35.8208 34.07 36.9508 33.35 38.1708 31.91C39.3908 30.47 40.5108 28.66 41.5308 26.48C40.3108 25.72 39.3908 24.74 38.7708 23.54C38.1508 22.32 37.8408 20.92 37.8408 19.34C37.8408 17.76 38.0808 16.43 38.5608 15.35C39.0608 14.25 39.7308 13.43 40.5708 12.89C41.4308 12.35 42.3808 12.08 43.4208 12.08C44.7008 12.08 45.7108 12.54 46.4508 13.46C47.2108 14.38 47.5908 15.64 47.5908 17.24C47.5908 19.54 47.0908 22.05 46.0908 24.77C47.1508 24.95 48.3608 25.04 49.7208 25.04ZM40.8708 19.13C40.8708 21.09 41.5008 22.54 42.7608 23.48C43.5408 21.24 43.9308 19.39 43.9308 17.93C43.9308 17.09 43.8208 16.48 43.6008 16.1C43.3808 15.7 43.0808 15.5 42.7008 15.5C42.1608 15.5 41.7208 15.82 41.3808 16.46C41.0408 17.08 40.8708 17.97 40.8708 19.13Z" fill="white"/>
</svg>
